# File created by Blade
# Date/Time:  Wed Apr 08 17:35:25 2015
# Frame Rate: 120.000 fps
#------------------------------------------------------
:FULLY-SPECIFIED
:DEGREES
1209
root 9.339171 37.354903 4.503840 134.489157 -70.762063 -98.425207
Spine -33.861187 1.900240 12.959794
Head 32.840644 -7.459661 11.444373
LeftShoulder -9.254654 24.043156 12.696611
LeftArm 22.964779 29.272563 -74.419717
LeftForeArm 19.439370 -0.000000 28.861054
LeftHand -12.957944 -0.000000 -9.760293
LeftHandThumb1 -26.253704 0.000000 33.147579
RightShoulder -40.075534 -52.406152 21.001449
RightArm 56.893539 -22.692312 43.168016
RightForeArm 5.246686 -0.000000 22.606957
RightHand -1.968575 -0.000000 28.399789
RightHandThumb1 -24.326973 -0.000000 -32.862282
LeftUpLeg -49.879255 21.883851 -4.057033
LeftLeg 22.848563 -0.000000 -0.000000
LeftFoot -15.384201 10.134904 -9.327441
LeftToeBase 12.654177 -0.000000 -0.000000
RightUpLeg -125.440413 -13.262651 21.494588
RightLeg 103.012983 -0.000000 -0.000000
RightFoot -12.001305 -26.650383 4.458940
RightToeBase -30.809150 -0.000000 0.000000
1210
root 9.341415 37.355556 4.499729 134.803600 -70.701546 -98.793985
Spine -33.794062 1.964676 12.932544
Head 32.876706 -7.366586 11.521347
LeftShoulder -9.266709 24.069618 12.723028
LeftArm 22.917567 29.288862 -74.418987
LeftForeArm 19.432837 -0.000000 28.888714
LeftHand -12.943120 -0.000000 -9.509945
LeftHandThumb1 -26.253704 0.000000 33.147579
RightShoulder -40.074564 -52.402688 21.053453
RightArm 56.890579 -22.605272 43.243588
RightForeArm 5.289922 -0.000000 22.585767
RightHand -1.798728 -0.000000 27.957711
RightHandThumb1 -24.326973 -0.000000 -32.862282
LeftUpLeg -49.772006 21.817729 -3.914778
LeftLeg 22.849659 -0.000000 -0.000000
LeftFoot -15.242843 10.397991 -9.127677
LeftToeBase 12.289317 -0.000000 -0.000000
RightUpLeg -125.400252 -13.265451 21.342652
RightLeg 102.209158 -0.000000 -0.000000
RightFoot -12.304753 -26.145229 4.273382
RightToeBase -31.108668 -0.000000 0.000000
1211
root 9.344955 37.355655 4.493441 135.145355 -70.647224 -99.171928
Spine -33.746981 1.994630 12.907486
Head 32.907910 -7.232150 11.627186
LeftShoulder -9.279385 24.116667 12.760666
LeftArm 22.849850 29.273442 -74.432680
LeftForeArm 19.377036 -0.000000 28.924092
LeftHand -12.951560 -0.000000 -9.284145
LeftHandThumb1 -26.253704 0.000000 33.147579
RightShoulder -40.062167 -52.391855 21.088923
RightArm 56.904851 -22.522146 43.317061
RightForeArm 5.317810 -0.000000 22.544085
RightHand -1.648342 -0.000000 27.548305
RightHandThumb1 -24.326973 -0.000000 -32.862282
LeftUpLeg -49.694884 21.765845 -3.806585
LeftLeg 22.829168 -0.000000 -0.000000
LeftFoot -15.156349 10.639588 -8.985024
LeftToeBase 12.148128 -0.000000 -0.000000
RightUpLeg -125.418751 -13.205999 21.309858
RightLeg 101.384328 -0.000000 -0.000000
RightFoot -12.488506 -25.246776 4.339072
RightToeBase -31.540233 -0.000000 0.000000
1212
root 9.348890 37.354951 4.487265 135.559705 -70.589086 -99.618547
Spine -33.700704 2.012202 12.872854
Head 32.935389 -7.086313 11.766666
LeftShoulder -9.303902 24.152988 12.810437
LeftArm 22.755252 29.241751 -74.472357
LeftForeArm 19.376280 -0.000000 28.947559
LeftHand -12.985577 -0.000000 -9.108605
LeftHandThumb1 -26.253704 0.000000 33.147579
RightShoulder -40.030096 -52.369674 21.123042
RightArm 56.899137 -22.437529 43.375500
RightForeArm 5.383805 -0.000000 22.544845
RightHand -1.520379 -0.000000 27.255721
RightHandThumb1 -24.326973 -0.000000 -32.862282
LeftUpLeg -49.626268 21.715047 -3.709802
LeftLeg 22.804949 -0.000000 -0.000000
LeftFoot -15.055246 10.915845 -8.850806
LeftToeBase 11.785426 -0.000000 -0.000000
RightUpLeg -125.487374 -13.059090 21.406227
RightLeg 100.564268 -0.000000 -0.000000
RightFoot -12.453692 -24.212055 4.204458
RightToeBase -32.017764 -0.000000 0.000000
1213
root 9.354212 37.355014 4.482486 136.097149 -70.523510 -100.131705
Spine -33.717474 2.051664 12.830696
Head 32.959977 -6.949613 11.905294
LeftShoulder -9.319612 24.206076 12.866552
LeftArm 22.648116 29.202226 -74.515843
LeftForeArm 19.350429 -0.000000 28.975267
LeftHand -12.974418 -0.000000 -8.949590
LeftHandThumb1 -26.253704 0.000000 33.147579
RightShoulder -39.999867 -52.327475 21.134186
RightArm 56.857441 -22.371200 43.465194
RightForeArm 5.384117 -0.000000 22.575291
RightHand -1.432846 -0.000000 26.960450
RightHandThumb1 -24.326973 -0.000000 -32.862282
LeftUpLeg -49.620800 21.692993 -3.661981
LeftLeg 22.777137 -0.000000 -0.000000
LeftFoot -14.972186 11.202801 -8.698341
LeftToeBase 11.471075 -0.000000 -0.000000
RightUpLeg -125.626831 -12.795018 21.671617
RightLeg 99.689972 -0.000000 -0.000000
RightFoot -12.566027 -23.141132 4.386517
RightToeBase -32.376496 -0.000000 0.000000
